<svg xmlns="http://www.w3.org/2000/svg" version="1.1" xmlns:xlink="http://www.w3.org/1999/xlink" xmlns:svgjs="http://svgjs.dev/svgjs" width="500" height="562.62"><svg id="SvgjsSvg1001" xmlns="http://www.w3.org/2000/svg" viewBox="0 0 500 562.62"><defs><style>.cls-1{fill:#fc466b;stroke-width:0px;}</style></defs><path class="cls-1" d="M226.2,6.38L23.8,123.23C9.07,131.74,0,147.45,0,164.46v233.71c0,17.01,9.07,32.72,23.8,41.22l202.4,116.86c14.73,8.5,32.87,8.5,47.6,0l202.4-116.86c14.73-8.5,23.8-24.22,23.8-41.22v-233.71c0-17.01-9.07-32.72-23.8-41.22L273.8,6.38c-14.73-8.5-32.87-8.5-47.6,0ZM94.3,252.55c1.83-8.57,2.75-17.48,5.82-25.58,2.76-7.29,7.55-13.93,12.15-20.36,2.04-2.85,5.87-3.05,9.03-.44,20.99,17.36,42.01,34.69,62.92,52.15,1.24,1.04-5.59,15.12-9.73,20.24-.44.54-1.75.38-2.63.54-10.45-2.34-20.81-4.71-31.19-6.99-13.11-2.87-26.26-5.6-39.36-8.53-7.4-1.66-8.57-3.66-7-11.03ZM98.18,300.97c-1.18-7.96-4.65-15.69-1.61-24.12,1.61-4.46,3.56-6.48,8.46-5.66,21.87,3.67,43.78,7.09,65.65,10.76,5.56.93,6.12,2.85,6.06,12.27-.03,4.67-2.33,6.16-6.41,6.63-20.91,2.41-41.81,4.9-59.52,6.99-10.25.69-11.62-.04-12.63-6.86ZM106.99,329.68c-.22-.14-.42-.29-.6-.45-.05-.04-.09-.1-.14-.14-.12-.12-.24-.25-.35-.38-.05-.07-.1-.14-.15-.21-.08-.12-.16-.25-.23-.38-.04-.08-.08-.16-.12-.24-.06-.14-.12-.28-.17-.42-.03-.08-.06-.16-.08-.24-.05-.16-.09-.33-.13-.5-.01-.06-.03-.13-.05-.19-.05-.24-.09-.48-.11-.73,0-.05,0-.11-.01-.16-.02-.2-.04-.4-.05-.61,0-.09,0-.19-.01-.29,0-.17-.01-.34-.02-.51,0-.1,0-.21,0-.31,0-.17,0-.35,0-.52,0-.19,0-.37,0-.56,0-.15,0-.3,0-.45,0-.27,0-.54,0-.81-.14-.78-.2-1.5-.19-2.14,0-.22.07-.39.09-.59.05-.4.08-.81.2-1.16.07-.21.2-.37.3-.57.14-.28.26-.58.46-.82.14-.17.34-.31.51-.46.22-.2.43-.42.69-.59.21-.13.47-.23.71-.34.3-.14.58-.29.92-.4.28-.09.61-.15.92-.22.37-.09.72-.18,1.13-.24.35-.05.74-.08,1.11-.11.44-.04.86-.08,1.34-.1.41-.01.86,0,1.3,0,.61,0,1.2,0,1.86.02,6.38.28,12.74.03,19.06-.63,8.96-.82,17.83-2.41,26.48-5.01.71-.21,1.35-.36,2-.52.44-.11.89-.22,1.31-.31.49-.1.93-.15,1.39-.22.39-.05.78-.11,1.14-.14.43-.03.82-.02,1.21-.01.33,0,.67,0,.97.03.37.04.7.13,1.04.21.27.07.55.11.8.2.32.12.58.3.86.46.21.12.44.22.63.37.26.21.47.49.69.75.15.18.32.32.45.52.21.34.36.75.52,1.15.08.2.19.37.26.59.2.66.34,1.4.42,2.23.68,7.26,4.59,14.18,1.56,21.88-.21.54-.44,1.03-.68,1.49-.07.13-.14.26-.21.38-.19.33-.39.64-.6.92-.08.1-.15.21-.23.31-.29.34-.59.65-.92.9-.05.03-.1.06-.15.09-.3.2-.61.37-.95.5-.12.04-.24.08-.36.12-.32.09-.66.15-1.03.18-.11,0-.22.03-.34.03-.41,0-.85-.02-1.31-.09-1.26-.18-2.73-.64-4.5-1.41-16.59-7.28-34.89-9.38-52.97-8.26-1.46.09-2.64.02-3.61-.18-.13-.03-.26-.05-.38-.08-.21-.05-.41-.12-.6-.18-.1-.03-.2-.07-.3-.1-.22-.09-.41-.19-.6-.29-.05-.03-.1-.05-.15-.08ZM111.28,379.68c-.13-.13-.26-.27-.38-.41-.09-.11-.18-.22-.27-.33-.12-.16-.22-.32-.32-.49-.08-.12-.15-.24-.22-.37-.1-.19-.18-.38-.27-.58-.06-.13-.12-.25-.16-.39-.08-.23-.15-.47-.22-.72-.03-.12-.07-.24-.1-.36-.08-.38-.15-.77-.19-1.18-.5-5.19-.62-10.41-.91-15.61.02,0,.05,0,.07,0-.24-4.46-.49-8.92-.71-13.38-.27-5.67,2.9-9,8.47-8.31,18.84,2.34,37.66,4.9,56.49,7.32,3.98.51,6.7,2.38,7.18,6.51.08.66.07,1.27.03,1.86,0,.12-.02.24-.03.36-.07.56-.18,1.08-.35,1.57-.03.09-.07.17-.11.25-.18.45-.4.87-.67,1.26-.04.06-.07.12-.11.18-.31.41-.67.79-1.08,1.14-.09.08-.18.15-.27.23-.43.34-.89.66-1.42.94-.04.02-.1.04-.14.07-.51.26-1.07.5-1.66.71-.12.04-.24.09-.37.13-.63.21-1.31.4-2.02.56-.14.03-.3.06-.44.09-.71.14-1.44.27-2.22.37-1.77.23-3.73.35-5.86.37-14.57.13-28.78,5.77-39.19,15.97-.83.81-1.66,1.46-2.48,2.01-.17.12-.34.23-.52.34-.24.15-.47.27-.71.4-.16.09-.33.18-.49.25-.25.12-.49.21-.74.31-.15.06-.29.12-.44.17-.29.1-.57.17-.85.24-.1.02-.2.06-.29.08-.37.08-.74.13-1.1.16-.09,0-.17,0-.26,0-.27.01-.53.02-.79,0-.13,0-.25-.03-.37-.05-.21-.03-.42-.05-.63-.1-.13-.03-.26-.07-.38-.11-.19-.05-.37-.11-.55-.18-.13-.05-.25-.11-.37-.17-.17-.08-.33-.16-.49-.26-.12-.07-.23-.15-.34-.23-.15-.1-.29-.22-.43-.34-.11-.09-.21-.18-.31-.28ZM172.32,395.06c-15.86,2.38-29.19,15.13-45.06,17.39-1.29.18-2.6.26-5.32.52-3.64.66-9.09-14.45-9.99-18.95-.99-4.97,4.17-8.49,7.78-9.64,9.23-2.94,18.45-5.91,27.66-8.89,4.96-1.61,9.92-3.22,14.88-4.84,4.24-1.38,8.48-2.75,12.72-4.14,2.15-.7,4.57-.5,6.41.82.05.03.08.07.12.11.62.46,1.1.96,1.47,1.49.36.52.6,1.06.8,1.62.02.06.05.11.06.16.17.52.28,1.06.38,1.6.07.42.14.84.21,1.26.05.32.1.64.16.96,2.52,13.98,1.49,18.46-12.26,20.53ZM188.9,253.72c-1.35.9-5.77-1.3-7.78-3.17-17.96-16.8-35.66-33.87-53.52-50.79-3.84-3.63-4.72-7.12-1.47-11.73,2.67-3.78,4.24-8.36,7.02-12.03,2.57-3.41,5.91-6.33,9.26-9.04,3.97-3.21,7.13-1.61,9.66,2.37,14.2,22.32,28.46,44.6,42.66,66.92,1.27,2,2.26,4.19,3.96,7.39-3.21,3.49-5.99,7.55-9.78,10.07ZM212.03,236.98c-5.59,1.3-9.06-2.3-11.91-6.47-13.01-19.08-26.02-38.17-38.93-57.32-1.54-2.28-2.93-4.85-3.6-7.48-1.4-5.48-.35-10.15,5.06-13.44,6.18-3.76,12.02-8.08,18.05-12.08,8.24-5.47,15.16-3.24,18.75,6.22,5.21,13.75,10.22,27.58,15.34,41.36,3.37,9.07,6.8,18.12,10.11,27.21.75,2.07,1.12,4.29,1.36,5.25,0,6.81-7.34,15.15-14.22,16.75ZM391.74,384.53c0,.15-.01.29-.02.46-.02.18-.04.38-.07.57-.02.17-.04.33-.06.52-.03.2-.07.43-.11.64-.03.19-.06.37-.1.57-.04.24-.1.51-.15.76-.04.21-.08.41-.13.64-.12.59-.21,1.19-.32,1.79-.25,1.31-1.31,11.64-1.5,12.96-.05.32-.09.61-.14.91-.04.28-.09.57-.13.83-.04.26-.09.5-.13.74-.04.25-.09.51-.13.74-.04.23-.09.43-.14.65-.05.22-.09.44-.14.64-.05.2-.1.38-.15.57-.05.18-.1.37-.15.54-.06.18-.12.33-.18.49-.05.15-.1.31-.16.44-.06.15-.14.28-.21.42-.06.12-.12.25-.18.36-.07.12-.16.22-.24.33-.07.09-.13.2-.21.28-.09.1-.19.17-.28.25-.08.07-.16.15-.25.22-.1.07-.22.12-.33.18-.09.05-.18.11-.28.15-.12.05-.26.07-.39.11-.11.03-.21.07-.32.09-.14.02-.3.03-.45.04-.12,0-.24.03-.37.03-.16,0-.34-.02-.52-.02-.14,0-.28,0-.43-.02-.19-.02-.41-.06-.61-.09-.16-.02-.3-.04-.47-.07-.25-.05-.53-.11-.81-.17-.14-.03-.27-.05-.42-.09-.29-.07-.62-.15-.94-.24-.15-.04-.29-.07-.46-.11-.49-.13-1.01-.28-1.56-.43-17.35-4.98-30.94-15.1-51.97-21.56-3.45-1.06-5.7-4.85-4.95-9.02.24-9.77,1.64-10.78,11.09-9.35,17.11,2.59,34.26,4.98,51.39,7.46.76.11,1.43.22,2.06.33.22.04.44.08.65.12.19.04.35.08.53.12.2.04.41.08.59.13.18.04.33.09.5.14.16.04.33.09.48.13.15.05.28.1.42.16.14.05.28.1.41.15.12.05.23.11.34.17.12.06.25.12.36.18.1.06.17.12.26.19.11.07.22.15.31.23.08.07.14.15.21.22.08.09.17.17.24.26.06.08.11.17.16.26.06.1.13.19.18.29.04.09.07.2.11.3.04.11.09.22.12.34.03.11.04.24.06.36.02.13.05.24.06.38.01.13.01.28.02.42,0,.14.02.27.02.42,0,.16-.02.33-.03.5ZM394.7,364.92c-1.13,9.03-2.19,10.72-7.92,9.81-19.88-3.16-39.73-6.54-59.58-9.83-3.05-.51-6.06-1.88-4.71-5.26.72-1.8,4.11-3.59,6.28-3.58,9.68.04,19.36.73,29.05,1.19,0,0,0-.01,0-.02,10.24.45,20.48.95,30.73,1.33,4.21.16,6.78,1.46,6.16,6.37ZM401.42,345.55c-1.65,6.51-4.71,9.31-11.15,9.71-1.67.1-3.35.02-3.5.02-19.36-1.32-37.2-2.45-55.03-3.8-6.76-.51-8.9-2.8-10.05-9.69-.4-2.39-.24-4.96-1.06-7.17-3.67-9.79,1.36-17.19,6.41-24.62,2.55-3.74,6.03-4.9,10.2-2.96,19.26,8.95,38.53,17.88,57.7,27,4.61,2.19,7.99,5.52,6.48,11.51ZM406.28,299.41c-.02,1.49-1.3,17.08-3.63,22.77-2.5,6.09-5.23,6.66-11.14,3.91-18.42-8.56-36.8-17.22-55.19-25.85-4.22-1.98-8.5-3.83-12.63-5.99-5.86-3.06-4.52-6.57-2.1-15.93,1.24-4.8,5.23-3.83,8.77-3.24,21.5,3.61,43,7.27,64.51,10.82,11.18,1.85,11.59,2.24,11.41,13.5ZM389.28,218.08c2.48,5.02,4.81,10.12,7.08,15.25,2.27,5.13,4.46,10.29,6.66,15.44.64,1.51.37,3.66-.11,5.34-1.42,5.02-3.29,9.91-4.73,14.92-1.67,5.82-5.58,8.05-13.68,7.6-14.64-2.21-31.59-4.77-48.55-7.33-3.13-.47-6.25-1.22-9.39-1.42-8.41-.55-13.05-5.3-15.68-12.93-1.53-4.44-.68-7.83,3.37-9.99,12.52-6.69,25.06-13.35,37.62-19.97,7.47-3.94,14.93-7.88,22.43-11.77,5.47-2.84,12.26-.66,14.99,4.87ZM337.93,161.58c4.29-3.96,8.93-3.64,12.4.96,7.16,9.51,14.26,19.08,21.21,28.75,4.21,5.85,2.72,13.44-3.94,17.16-20.99,11.7-42.19,23.02-63.31,34.48-4.05,2.2-7.2,1.14-9.35-2.82-1.67-3.07-3.15-6.23-4.82-9.57,1.48-2.97,2.48-5.81,4.14-8.19,13.05-18.61,26.21-37.13,39.38-55.65,1.29-1.81,2.68-3.62,4.31-5.12ZM309.82,139.58c6.25,4.67,12.38,9.49,18.36,14.49,1.71,1.44,2.29,10.07,1.13,11.66-14.71,20.15-29.46,40.27-44.31,60.33-2.23,3.01-4.34,7.24-9.34,4.42-4.88-2.75-4.71-6.77-3-11.57,9-25.24,17.78-50.57,26.66-75.85,2.14-6.1,5.42-7.27,10.49-3.49ZM262.32,109.08c1.27.44,2.53.93,3.8,1.4.86.32,1.73.62,2.58.95,1.36.53,2.71,1.1,4.06,1.66.77.32,1.54.62,2.3.94,1.5.64,2.99,1.29,4.48,1.95.89.39,1.79.76,2.67,1.18,1.52.71,3.04,1.45,4.61,2.06,8.26,3.2,11.77,11.15,8.84,19.38-10.18,28.62-20.38,57.23-30.64,85.81-2.87,7.98-7.12,10.86-15.02,10.6-11.53-.37-14.57-2.56-18.15-13.57-8.58-26.39-17.1-52.8-25.6-79.22-2.57-8,.81-15.55,8.53-18.74,9.04-3.73,18.06-7.51,27.18-11.03,3.04-1.17,6.09-2.31,9.16-3.41,3.34-1.2,7.81-1.13,11.2.03Z"></path></svg><style>@media (prefers-color-scheme: light) { :root { filter: none; } }
@media (prefers-color-scheme: dark) { :root { filter: none; } }
</style></svg>